<svg xmlns="http://www.w3.org/2000/svg" xmlns:xlink="http://www.w3.org/1999/xlink" width="182.829" height="54.308" viewBox="0 0 182.829 54.308"><defs><linearGradient id="a" y1="0.5" x2="1" y2="0.5" gradientUnits="objectBoundingBox"><stop offset="0" stop-color="#15767a"/><stop offset="1" stop-color="#074d4f"/></linearGradient></defs><g transform="translate(-158.562 -280.225)"><text transform="translate(303.39 300.225)" stroke="#000" stroke-width="1" font-size="18" font-family="SegoeUI-Bold, Segoe UI" font-weight="700"><tspan x="0" y="0">PRO</tspan></text><g transform="translate(158.562 286.86)"><path d="M149.349,334.865a4.163,4.163,0,0,1,.741-3.093c4.661-8.66,9.4-17.279,14.021-25.96,1.068-2.007,1.982-2.367,3.626-.6,2.006,2.148,4.15,4.171,6.281,6.2,1.081,1.029,1.265,1.954.037,2.974q-12.186,10.122-24.369,20.249C149.633,334.673,149.613,334.68,149.349,334.865Z" transform="translate(-149.261 -287.769)" fill="url(#a)"/><path d="M211.68,330.526a3.4,3.4,0,0,1-2.547-1.159Q196.4,317.012,183.7,304.622c-.559-.545-1.6-1.037-1.277-1.926.343-.942,1.446-.518,2.213-.528,3.209-.044,6.42.013,9.628-.028a3.122,3.122,0,0,1,3.172,1.682q6.7,12.635,13.445,25.248C211.082,329.446,211.293,329.9,211.68,330.526Z" transform="translate(-162.439 -286.976)" fill="url(#a)"/><path d="M209.941,342.379c-1.117.5-2.508-.2-3.439-.527q-12.643-4.465-25.249-9.032c-1.039-.377-2.579-.429-2.85-1.649-.143-1.163,1.218-1.777,2.039-2.519,2.211-2,4.452-3.956,6.661-5.953.79-.714,1.529-1.154,2.481-.24,6.652,6.389,13.473,12.6,19.79,19.336A3.688,3.688,0,0,1,209.941,342.379Z" transform="translate(-160.857 -294.883)" fill="url(#a)"/><path d="M186.485,290.589c-1.829,0-3.658.042-5.485-.013-1.549-.045-1.9-.792-1.147-2.155,1.9-3.443,3.783-6.891,5.619-10.366.853-1.614,1.446-1.246,2.165.089,1.819,3.381,3.677,6.74,5.538,10.1.948,1.712.246,2.354-1.479,2.363s-3.474,0-5.211,0Z" transform="translate(-161.288 -276.986)" fill="url(#a)"/></g><g transform="translate(214.451 286.86)"><path d="M240.028,339.6V291.925h7.52V339.6Z" transform="translate(-240.028 -291.925)" fill="url(#a)"/><path d="M260.827,339.6V291.925h16.921a25.219,25.219,0,0,1,10.106,1.88,20.823,20.823,0,0,1,7.252,5.1,21.386,21.386,0,0,1,4.4,7.553,28.423,28.423,0,0,1,1.478,9.232,27.9,27.9,0,0,1-1.646,9.837,21.49,21.49,0,0,1-4.667,7.521,20.69,20.69,0,0,1-7.318,4.834,25.74,25.74,0,0,1-9.6,1.712Zm32.5-23.9a21.982,21.982,0,0,0-1.041-6.915,15.066,15.066,0,0,0-3.055-5.405,14.187,14.187,0,0,0-4.9-3.525,16.132,16.132,0,0,0-6.579-1.276h-9.4V332.95h9.4a16.19,16.19,0,0,0,6.681-1.309,13.751,13.751,0,0,0,4.9-3.626,15.629,15.629,0,0,0,2.988-5.472A22.442,22.442,0,0,0,293.325,315.694Z" transform="translate(-245.397 -291.925)" fill="url(#a)"/><path d="M333.74,291.925l2.927,7.841L352.114,339.6h-6.67l-4.24-10.909H325.716L321.532,339.6h-6.726ZM339.96,324l-6.444-17.241L326.846,324Z" transform="translate(-259.332 -291.925)" fill="url(#a)"/></g></g></svg>